<?xml version="1.0"?>
<svg xmlns="http://www.w3.org/2000/svg" xmlns:xlink="http://www.w3.org/1999/xlink" version="1.1" id="Capa_1" x="0px" y="0px" viewBox="0 0 512 512" style="enable-background:new 0 0 512 512;" xml:space="preserve" width="512px" height="512px" class=""><g><g>
	<g>
		<g>
			<path d="M443.733,170.667H68.267c-4.719,0-8.533,3.823-8.533,8.533v281.6c0,4.71,3.814,8.533,8.533,8.533h375.467     c4.719,0,8.533-3.823,8.533-8.533V179.2C452.267,174.49,448.452,170.667,443.733,170.667z M435.2,452.267H76.8V187.733h358.4     V452.267z" data-original="#000000" class="active-path" data-old_color="#000000" fill="#FFFFFF"/>
			<path d="M229.332,370.154l-7.21,28.839c-0.64,2.551-0.068,5.257,1.553,7.322c1.613,2.074,4.096,3.285,6.724,3.285h17.067v17.067     c0,4.71,3.814,8.533,8.533,8.533c4.719,0,8.533-3.823,8.533-8.533V409.6H281.6c2.628,0,5.112-1.212,6.724-3.285     c1.621-2.065,2.193-4.77,1.553-7.322l-7.21-28.839c29.242-12.069,50.132-43.382,50.132-80.021     c0-47.053-34.449-85.333-76.8-85.333s-76.8,38.281-76.8,85.333C179.2,326.772,200.091,358.085,229.332,370.154z M270.669,392.533     h-29.338l4.459-17.843c3.343,0.496,6.746,0.777,10.21,0.777c3.463,0,6.867-0.281,10.21-0.777L270.669,392.533z M256,221.867     c32.93,0,59.733,30.626,59.733,68.267c0,37.641-26.803,68.267-59.733,68.267s-59.733-30.626-59.733-68.267     C196.267,252.493,223.07,221.867,256,221.867z" data-original="#000000" class="active-path" data-old_color="#000000" fill="#FFFFFF"/>
			<path d="M230.4,281.6c0-14.686,13.065-25.6,17.067-25.6c4.719,0,8.533-3.823,8.533-8.533s-3.814-8.533-8.533-8.533     c-15.044,0-34.133,20.087-34.133,42.667c0,4.71,3.814,8.533,8.533,8.533S230.4,286.31,230.4,281.6z" data-original="#000000" class="active-path" data-old_color="#000000" fill="#FFFFFF"/>
			<path d="M486.4,34.133H374.608C370.644,14.682,353.405,0,332.8,0c-4.719,0-8.533,3.823-8.533,8.533s3.814,8.533,8.533,8.533     c14.114,0,25.6,11.486,25.6,25.6s-11.486,25.6-25.6,25.6c-4.719,0-8.533,3.823-8.533,8.533s3.814,8.533,8.533,8.533     c20.605,0,37.844-14.682,41.808-34.133h103.259V128H34.133V51.2h110.933h25.6c4.719,0,8.533-3.823,8.533-8.533     c0-4.71-3.814-8.533-8.533-8.533h-15.598c3.523-9.931,13.009-17.067,24.132-17.067c14.114,0,25.6,11.486,25.6,25.6     s-11.486,25.6-25.6,25.6c-4.719,0-8.533,3.823-8.533,8.533s3.814,8.533,8.533,8.533c23.526,0,42.667-19.14,42.667-42.667     C221.867,19.14,202.726,0,179.2,0c-20.605,0-37.844,14.682-41.808,34.133H25.6c-4.719,0-8.533,3.823-8.533,8.533v93.867v366.933     c0,4.71,3.814,8.533,8.533,8.533h460.8c4.719,0,8.533-3.823,8.533-8.533V136.533V42.667     C494.933,37.956,491.119,34.133,486.4,34.133z M34.133,494.933V145.067h443.733v349.867H34.133z" data-original="#000000" class="active-path" data-old_color="#000000" fill="#FFFFFF"/>
			<path d="M230.4,17.067c14.114,0,25.6,11.486,25.6,25.6s-11.486,25.6-25.6,25.6c-4.719,0-8.533,3.823-8.533,8.533     s3.814,8.533,8.533,8.533c23.526,0,42.667-19.14,42.667-42.667C273.067,19.14,253.926,0,230.4,0     c-4.719,0-8.533,3.823-8.533,8.533S225.681,17.067,230.4,17.067z" data-original="#000000" class="active-path" data-old_color="#000000" fill="#FFFFFF"/>
			<path d="M281.6,17.067c14.114,0,25.6,11.486,25.6,25.6s-11.486,25.6-25.6,25.6c-4.719,0-8.533,3.823-8.533,8.533     s3.814,8.533,8.533,8.533c23.526,0,42.667-19.14,42.667-42.667C324.267,19.14,305.126,0,281.6,0     c-4.719,0-8.533,3.823-8.533,8.533S276.881,17.067,281.6,17.067z" data-original="#000000" class="active-path" data-old_color="#000000" fill="#FFFFFF"/>
		</g>
	</g>
</g></g> </svg>
