<?xml version="1.0"?>
<svg xmlns="http://www.w3.org/2000/svg" xmlns:xlink="http://www.w3.org/1999/xlink" version="1.1" id="Layer_3" x="0px" y="0px" viewBox="0 0 64 64" style="enable-background:new 0 0 64 64;" xml:space="preserve" width="512px" height="512px" class="hovered-paths"><g><g>
	<path d="M54,43H44c-0.552,0-1,0.447-1,1v19h2v-2h4v-2h-4v-2h6v-2h-6v-2h4v-2h-4v-2h4v-2h-4v-2h8v18h2V44C55,43.447,54.552,43,54,43   z" data-original="#000000" class="active-path" data-old_color="#000000" fill="#46FCF4"/>
	<path d="M60.949,43.684C60.812,43.275,60.431,43,60,43s-0.812,0.275-0.949,0.684l-2,6C57.017,49.786,57,49.893,57,50v13h2V51h2v12   h2V50c0-0.107-0.017-0.214-0.051-0.316L60.949,43.684z M60.613,49h-1.225L60,47.162L60.613,49z" data-original="#000000" class="active-path" data-old_color="#000000" fill="#46FCF4"/>
	<path d="M62,1h-4v2h1.586L57,5.586l-2.293-2.293c-0.391-0.391-1.023-0.391-1.414,0l-3,3l1.414,1.414L54,5.414l2.293,2.293   C56.488,7.902,56.744,8,57,8s0.512-0.098,0.707-0.293L61,4.414V6h2V2C63,1.447,62.552,1,62,1z" data-original="#000000" class="active-path" data-old_color="#000000" fill="#46FCF4"/>
	<path d="M62,10h-4c-0.552,0-1,0.447-1,1v1h-3c-0.552,0-1,0.447-1,1v1h-3c-0.552,0-1,0.447-1,1v6c0,0.553,0.448,1,1,1h4h4h4   c0.552,0,1-0.447,1-1V11C63,10.447,62.552,10,62,10z M51,16h2v4h-2V16z M55,15v-1h2v6h-2V15z M61,20h-2v-7v-1h2V20z" data-original="#000000" class="active-path" data-old_color="#000000" fill="#46FCF4"/>
	<path d="M49,32c0-4.963-4.038-9-9-9s-9,4.037-9,9s4.038,9,9,9S49,36.963,49,32z M33,32c0-3.519,2.613-6.432,6-6.92V27   c-1.103,0-2,0.897-2,2v2c0,1.103,0.897,2,2,2h2v2h-4v2h2v1.92C35.613,38.432,33,35.519,33,32z M41,38.92V37c1.103,0,2-0.897,2-2v-2   c0-1.103-0.897-2-2-2h-2v-2h4v-2h-2v-1.92c3.387,0.488,6,3.401,6,6.92S44.387,38.432,41,38.92z" data-original="#000000" class="active-path" data-old_color="#000000" fill="#46FCF4"/>
	<path d="M12.305,17.723C13.336,16.806,14,15.485,14,14c0-2.757-2.243-5-5-5s-5,2.243-5,5c0,1.485,0.664,2.806,1.695,3.723   C2.93,18.984,1,21.768,1,25v9c0,0.553,0.448,1,1,1h1v19c0,0.553,0.448,1,1,1h10c0.552,0,1-0.447,1-1V35h1c0.552,0,1-0.447,1-1v-9   C17,21.768,15.07,18.984,12.305,17.723z M6,14c0-1.654,1.346-3,3-3s3,1.346,3,3s-1.346,3-3,3S6,15.654,6,14z M13,53h-3V39H8v14H5   V35h8V53z M15,33h-1H4H3v-8c0-3.309,2.691-6,6-6s6,2.691,6,6V33z" data-original="#000000" class="active-path" data-old_color="#000000" fill="#46FCF4"/>
	<path d="M23,33h6v-2h-6V13h17v-2H22c-0.552,0-1,0.447-1,1v40c0,0.553,0.448,1,1,1h17v-2H23V33z" data-original="#000000" class="active-path" data-old_color="#000000" fill="#46FCF4"/>
</g></g> </svg>
